<svg xmlns="http://www.w3.org/2000/svg" viewBox="0 0 256 256">
  <defs>
    <linearGradient id="cityGrad" x1="0" y1="0" x2="1" y2="1">
      <stop offset="0%" stop-color="#1a9bd9"/>
      <stop offset="100%" stop-color="#31c48d"/>
    </linearGradient>
  </defs>
  <rect width="256" height="256" rx="32" fill="#fff"/>
  <path d="M36 180h184v22H36z" fill="#e6f2fb"/>
  <path d="M52 176h24v-76h-24zM96 176h24v-96h-24zM148 176h24v-64h-24zM188 176h24v-84h-24z" fill="url(#cityGrad)"/>
  <path d="M58 124h12v12H58zm0 22h12v12H58zm44-54h12v12h-12zm0 22h12v12h-12zm44-26h12v12h-12zm0 22h12v12h-12zm40-34h12v12h-12zm0 22h12v12h-12z" fill="#fff" opacity="0.85"/>
  <path d="M128 98a50 50 0 0 1 50 50" fill="none" stroke="#31c48d" stroke-width="10" stroke-linecap="round" opacity="0.85"/>
  <path d="M128 108a40 40 0 0 1 40 40" fill="none" stroke="#1a9bd9" stroke-width="8" stroke-linecap="round" opacity="0.9"/>
  <circle cx="128" cy="98" r="10" fill="#1a9bd9"/>
  <g opacity="0.75">
    <path d="M60 184h8v14h-8zM204 184h8v14h-8z" fill="#31c48d"/>
    <path d="M78 170h100v8H78z" fill="#1a9bd9"/>
  </g>
</svg>
